<svg width="512" height="512" xmlns="http://www.w3.org/2000/svg">

 <g>
  <title>background</title>
  <rect fill="none" id="canvas_background" height="402" width="582" y="-1" x="-1"/>
 </g>
 <g>
  <title>Layer 1</title>
  <path id="svg_3" d="m300.88,384.19l-92.27,0c-4.27,0 -7.73,-3.46 -7.73,-7.73l0,-2.04c0,-32.86 -12.65,-65.38 -36.6,-94.03c-21.62,-25.88 -30.89,-58.72 -26.09,-92.5c7.37,-51.82 50.52,-93.78 102.61,-99.77c33.64,-3.9 67.25,6.71 92.28,29.03c25.06,22.34 39.43,54.39 39.43,87.94c0,29.3 -10.87,57.38 -30.59,79.06c-21.48,23.6 -33.31,56.2 -33.31,91.78c0,4.28 -3.45,8.26 -7.73,8.26zm-84.66,-15.46l77.1,0c1.6,-36.89 14.65,-70.24 37.17,-94.98c17.13,-18.83 26.56,-43.22 26.56,-68.66c0,-29.14 -12.49,-57 -34.26,-76.4c-22.07,-19.67 -50.56,-28.62 -80.23,-25.21c-45.22,5.21 -82.68,41.62 -89.07,86.59c-4.17,29.38 3.86,57.95 22.65,80.41c24.93,29.84 38.72,63.68 40.08,98.25z"/>
  <path id="svg_5" d="m307.22,419.3l-104.94,0c-10.1,0 -18.31,-8.21 -18.31,-18.31l0,-13.95c0,-10.1 8.21,-18.31 18.31,-18.31l104.94,0c10.09,0 18.3,8.21 18.3,18.31l0,13.95c0,10.1 -8.21,18.31 -18.3,18.31zm-104.94,-35.11c-1.57,0 -2.85,1.28 -2.85,2.85l0,13.95c0,1.57 1.28,2.85 2.85,2.85l104.94,0c1.57,0 2.84,-1.28 2.84,-2.85l0,-13.95c0,-1.57 -1.28,-2.85 -2.84,-2.85l-104.94,0z"/>
  <path id="svg_7" d="m307.22,454.41l-104.94,0c-10.1,0 -18.31,-8.21 -18.31,-18.31l0,-13.95c0,-10.1 8.21,-18.31 18.31,-18.31l104.94,0c10.09,0 18.3,8.21 18.3,18.31l0,13.95c0,10.1 -8.21,18.31 -18.3,18.31zm-104.94,-35.11c-1.57,0 -2.85,1.28 -2.85,2.85l0,13.95c0,1.57 1.28,2.85 2.85,2.85l104.94,0c1.57,0 2.84,-1.28 2.84,-2.85l0,-13.95c0,-1.57 -1.28,-2.85 -2.84,-2.85l-104.94,0z"/>
  <path id="svg_9" d="m254.75,511c-25.76,0 -46.7,-20.95 -46.7,-46.7l0,-17.62c0,-4.27 3.46,-7.73 7.73,-7.73l77.94,0c4.27,0 7.73,3.46 7.73,7.73l0,17.62c-0.01,25.75 -20.96,46.7 -46.7,46.7zm-31.25,-56.59l0,9.89c0,17.23 14.02,31.24 31.25,31.24s31.24,-14.01 31.24,-31.24l0,-9.89l-62.49,0z"/>
  <path id="svg_12" d="m237.55,226.38c-13.74,0 -24.92,-11.18 -24.92,-24.92s11.18,-24.92 24.92,-24.92c13.74,0 24.92,11.18 24.92,24.92s-11.18,24.92 -24.92,24.92zm0,-34.39c-5.21,0 -9.46,4.25 -9.46,9.47c0,5.21 4.25,9.46 9.46,9.46c5.22,0 9.47,-4.25 9.47,-9.46c0,-5.22 -4.25,-9.47 -9.47,-9.47z"/>
  <path id="svg_14" d="m271.94,226.38c-13.74,0 -24.92,-11.18 -24.92,-24.92s11.18,-24.92 24.92,-24.92s24.92,11.18 24.92,24.92s-11.18,24.92 -24.92,24.92zm0,-34.39c-5.21,0 -9.46,4.25 -9.46,9.47c0,5.21 4.25,9.46 9.46,9.46c5.22,0 9.47,-4.25 9.47,-9.46c0,-5.22 -4.25,-9.47 -9.47,-9.47z"/>
  <path id="svg_16" d="m254.75,384.19c-3.69,0 -6.87,-2.61 -7.58,-6.24l-34.39,-175c-0.82,-4.18 1.91,-8.25 6.1,-9.07c4.17,-0.85 8.25,1.91 9.07,6.1l26.8,136.4l26.8,-136.4c0.82,-4.19 4.89,-6.94 9.07,-6.1c4.19,0.82 6.92,4.89 6.1,9.07l-34.39,175c-0.72,3.63 -3.89,6.24 -7.58,6.24z"/>
  <path id="svg_18" d="m436.43,209.19l-26.36,0c-4.27,0 -7.73,-3.46 -7.73,-7.73s3.46,-7.73 7.73,-7.73l26.36,0c4.27,0 7.73,3.46 7.73,7.73s-3.46,7.73 -7.73,7.73z"/>
  <path id="svg_20" d="m436.43,209.19l-26.36,0c-4.27,0 -7.73,-3.46 -7.73,-7.73s3.46,-7.73 7.73,-7.73l26.36,0c4.27,0 7.73,3.46 7.73,7.73s-3.46,7.73 -7.73,7.73z"/>
  <path id="svg_22" d="m256.52,42.82c-4.27,0 -7.73,-3.46 -7.73,-7.73l0,-26.36c0,-4.27 3.46,-7.73 7.73,-7.73c4.27,0 7.73,3.46 7.73,7.73l0,26.37c0,4.26 -3.46,7.72 -7.73,7.72z"/>
  <path id="svg_24" d="m256.52,42.82c-4.27,0 -7.73,-3.46 -7.73,-7.73l0,-26.36c0,-4.27 3.46,-7.73 7.73,-7.73c4.27,0 7.73,3.46 7.73,7.73l0,26.37c0,4.26 -3.46,7.72 -7.73,7.72z"/>
  <path id="svg_26" d="m352.52,92.35c-1.31,0 -2.64,-0.33 -3.86,-1.03c-3.7,-2.14 -4.97,-6.86 -2.83,-10.56l13.18,-22.83c2.14,-3.7 6.86,-4.97 10.56,-2.83c3.7,2.14 4.97,6.86 2.83,10.56l-13.18,22.83c-1.43,2.48 -4.03,3.86 -6.7,3.86z"/>
  <path id="svg_28" d="m160.52,92.35c-2.67,0 -5.27,-1.39 -6.7,-3.86l-13.18,-22.83c-2.14,-3.7 -0.87,-8.42 2.83,-10.56c3.68,-2.14 8.41,-0.87 10.56,2.83l13.18,22.83c2.14,3.7 0.87,8.42 -2.83,10.56c-1.22,0.7 -2.55,1.03 -3.86,1.03z"/>
  <path id="svg_30" d="m101.93,209.19l-26.36,0c-4.27,0 -7.73,-3.46 -7.73,-7.73s3.46,-7.73 7.73,-7.73l26.36,0c4.27,0 7.73,3.46 7.73,7.73s-3.46,7.73 -7.73,7.73z"/>
 </g>
</svg>