<svg width="32" height="32" xmlns="http://www.w3.org/2000/svg">

 <title/>
 <g>
  <title>background</title>
  <rect fill="none" id="canvas_background" height="402" width="582" y="-1" x="-1"/>
 </g>
 <g>
  <title>Layer 1</title>
  <polygon fill="#303242" id="svg_1" points="17 12 15 12 15 14.5 12.5 14.5 12.5 16.5 15 16.5 15 19 17 19 17 16.5 19.5 16.5 19.5 14.5 17 14.5 17 12"/>
  <path fill="#303242" id="svg_2" d="m28,7.39a7.08,7.08 0 0 0 -5.27,-3.39a7.35,7.35 0 0 0 -2.58,0.28a11.44,11.44 0 0 0 -3.82,2.05l-0.33,0.29l-0.12,-0.1a13.4,13.4 0 0 0 -1.88,-1.29a8.29,8.29 0 0 0 -4.73,-1.23a6.16,6.16 0 0 0 -1.42,0.28a6.86,6.86 0 0 0 -2.74,1.79a10.49,10.49 0 0 0 -1.11,1.32c-3.8,5.47 3.91,13.75 8.48,17.91c0.56,0.52 1.08,1 1.52,1.34c0.65,0.56 1.14,0.95 1.38,1.14l1.24,0c1.69,-1.33 16.38,-13.25 11.38,-20.39zm-12,18.32l-0.48,-0.41c-0.47,-0.39 -1,-0.84 -1.52,-1.33c-4.67,-4.26 -11.09,-11.51 -8.34,-15.43a6.34,6.34 0 0 1 2.26,-2.1a4,4 0 0 1 1.51,-0.44a2.3,2.3 0 0 1 0.37,0a5.57,5.57 0 0 1 1.86,0.34l0.46,0.18a10.34,10.34 0 0 1 1.88,1.08a10.69,10.69 0 0 1 1.29,1.06l1.43,0a10.9,10.9 0 0 1 3.36,-2.22a5.51,5.51 0 0 1 2.48,-0.44a1.77,1.77 0 0 1 0.32,0a5.32,5.32 0 0 1 3.46,2.48c3.17,4.59 -5.87,13.52 -10.34,17.23z"/>
  <path stroke="null" fill="#ba6c65" id="svg_3" d="m16.060304,25.767887l-0.482418,-0.411208c4.593019,-4.172255 12.341854,-12.476647 8.522713,-17.962761a10.713694,10.691403 0 0 0 -1.105541,-1.333918a5.346797,5.335672 0 0 1 3.477428,2.487306c3.165866,4.543345 -5.919668,13.499652 -10.412183,17.220581z" class="cls-1"/>
 </g>
</svg>