<svg width="512" height="512" xmlns="http://www.w3.org/2000/svg">

 <g>
  <title>background</title>
  <rect fill="none" id="canvas_background" height="402" width="582" y="-1" x="-1"/>
 </g>
 <g>
  <title>Layer 1</title>
  <path id="svg_2" stroke-width="20.1764" stroke-miterlimit="10" stroke-linejoin="round" stroke-linecap="round" stroke="#000000" fill="none" d="m-1296.487,-377.771l0,185.874c0,26.835 -21.948,48.783 -48.782,48.783l0,0c-26.863,0 -48.811,-21.948 -48.811,-48.783l0,-185.874l97.593,0z"/>
  <path id="svg_3" stroke-width="20.1764" stroke-miterlimit="10" stroke-linejoin="round" stroke-linecap="round" stroke="#000000" fill="none" d="m-1410.169,-405.292l129.8,0c4.829,0 8.802,3.973 8.802,8.831l0,9.859c0,4.858 -3.973,8.831 -8.802,8.831l-129.8,0c-4.858,0 -8.831,-3.973 -8.831,-8.831l0,-9.859c0,-4.858 3.972,-8.831 8.831,-8.831l0,0z"/>
  <line id="svg_4" y2="-137.912" y1="-32" x2="-1344.241" x1="-1344.241" stroke-width="20.1764" stroke-miterlimit="10" stroke-linejoin="round" stroke-linecap="round" stroke="#000000" fill="none"/>
  <line id="svg_5" y2="-341.962" y1="-341.962" x2="-1296.487" x1="-1320.864" stroke-width="20.1764" stroke-miterlimit="10" stroke-linejoin="round" stroke-linecap="round" stroke="#000000" fill="none"/>
  <line id="svg_6" y2="-309.411" y1="-309.411" x2="-1296.487" x1="-1340.611" stroke-width="20.1764" stroke-miterlimit="10" stroke-linejoin="round" stroke-linecap="round" stroke="#000000" fill="none"/>
  <line id="svg_7" y2="-276.889" y1="-276.889" x2="-1296.487" x1="-1320.864" stroke-width="20.1764" stroke-miterlimit="10" stroke-linejoin="round" stroke-linecap="round" stroke="#000000" fill="none"/>
  <line id="svg_8" y2="-244.338" y1="-244.338" x2="-1296.487" x1="-1340.611" stroke-width="20.1764" stroke-miterlimit="10" stroke-linejoin="round" stroke-linecap="round" stroke="#000000" fill="none"/>
  <line id="svg_9" y2="-211.815" y1="-211.815" x2="-1296.487" x1="-1320.864" stroke-width="20.1764" stroke-miterlimit="10" stroke-linejoin="round" stroke-linecap="round" stroke="#000000" fill="none"/>
  <path id="svg_10" stroke-width="20.1764" stroke-miterlimit="10" stroke-linejoin="round" stroke-linecap="round" stroke="#000000" fill="none" d="m-1329.209,-489.627l0,84.335l-22.491,0l0,-84.335c3.515,0.515 7.288,0.772 11.26,0.772c3.944,0 7.716,-0.257 11.231,-0.772l0,0zm0,111.856l0,0.743l-22.491,0l0,-0.743l22.491,0z"/>
  <path id="svg_11" stroke-width="20.1764" stroke-miterlimit="10" stroke-linejoin="round" stroke-linecap="round" stroke="#000000" fill="none" d="m-1340.439,-488.855c18.203,0 33.093,-5.944 33.093,-13.232s-14.89,-13.232 -33.093,-13.232c-18.233,0 -33.093,5.944 -33.093,13.232s14.86,13.232 33.093,13.232l0,0z"/>
  <path id="svg_13" stroke-width="20.1478" stroke-miterlimit="10" stroke-linejoin="round" stroke-linecap="round" stroke="#000000" fill="none" d="m-972.374,-345l327.615,0c41.123,0 74.759,33.637 74.759,74.761l0,0c0,41.096 -33.636,74.732 -74.759,74.732l-327.615,0c-41.123,0 -74.759,-33.637 -74.759,-74.732l0,0c0,-41.124 33.636,-74.761 74.759,-74.761l0,0z"/>
  <path id="svg_14" stroke-width="20.1478" stroke-miterlimit="10" stroke-linejoin="round" stroke-linecap="round" stroke="#000000" fill="none" d="m-861.664,-345l106.195,0c19.775,0 35.979,16.175 35.979,35.98l0,77.533c0,19.806 -16.204,35.98 -35.979,35.98l-106.195,0c-19.776,0 -35.979,-16.175 -35.979,-35.98l0,-77.533c0,-19.805 16.204,-35.98 35.979,-35.98l0,0z"/>
  <line id="svg_15" y2="-295.988" y1="-295.759" x2="-673.422" x1="-673.422" stroke-width="20.1478" stroke-miterlimit="10" stroke-linejoin="round" stroke-linecap="round" stroke="#000000" fill="none"/>
  <line id="svg_16" y2="-233.659" y1="-233.401" x2="-668.993" x1="-668.993" stroke-width="20.1478" stroke-miterlimit="10" stroke-linejoin="round" stroke-linecap="round" stroke="#000000" fill="none"/>
  <line id="svg_17" y2="-273.868" y1="-273.64" x2="-615.924" x1="-615.924" stroke-width="20.1478" stroke-miterlimit="10" stroke-linejoin="round" stroke-linecap="round" stroke="#000000" fill="none"/>
  <line id="svg_18" y2="-254.006" y1="-253.75" x2="-998.008" x1="-998.008" stroke-width="20.1478" stroke-miterlimit="10" stroke-linejoin="round" stroke-linecap="round" stroke="#000000" fill="none"/>
  <line id="svg_19" y2="-293.188" y1="-292.93" x2="-952.141" x1="-952.141" stroke-width="20.1478" stroke-miterlimit="10" stroke-linejoin="round" stroke-linecap="round" stroke="#000000" fill="none"/>
  <line id="svg_20" y2="-232.858" y1="-232.601" x2="-945.71" x1="-945.71" stroke-width="20.1478" stroke-miterlimit="10" stroke-linejoin="round" stroke-linecap="round" stroke="#000000" fill="none"/>
  <path id="svg_22" stroke-width="20.1478" stroke-miterlimit="10" stroke-linejoin="round" stroke-linecap="round" stroke="#000000" fill="none" d="m-291.96,-445.702l15.975,0c32.979,0 59.985,26.978 59.985,59.986l0,111.941c0,32.979 -27.006,59.986 -59.985,59.986l-15.975,0c-33.007,0 -59.984,-27.007 -59.984,-59.986l0,-111.941c0,-33.008 26.977,-59.986 59.984,-59.986l0,0z"/>
  <path id="svg_23" stroke-width="20.1478" stroke-miterlimit="10" stroke-linejoin="round" stroke-linecap="round" stroke="#000000" fill="none" d="m-282.986,-189.011l0,0c7.716,0 14.003,6.288 14.003,14.004l0,41.981c0,7.688 -6.287,13.975 -14.003,13.975l0,0c-7.688,0 -13.975,-6.287 -13.975,-13.975l0,-41.981c0,-7.716 6.287,-14.004 13.975,-14.004l0,0z"/>
  <path id="svg_24" stroke-width="20.1478" stroke-miterlimit="10" stroke-linejoin="round" stroke-linecap="round" stroke="#000000" fill="none" d="m-287.188,-31c-22.291,-40.695 14.518,-43.64 1.829,-88.279"/>
  <polyline id="svg_25" stroke-width="20.1478" stroke-miterlimit="10" stroke-linejoin="round" stroke-linecap="round" stroke="#000000" points="    -336.398,-368.74 -245.436,-368.74 -216,-368.74   " fill="none"/>
  <line id="svg_26" y2="-334.761" y1="-334.761" x2="-216" x1="-241.006" stroke-width="20.1478" stroke-miterlimit="10" stroke-linejoin="round" stroke-linecap="round" stroke="#000000" fill="none"/>
  <polyline id="svg_27" stroke-width="20.1478" stroke-miterlimit="10" stroke-linejoin="round" stroke-linecap="round" stroke="#000000" points="    -260.981,-298.409 -227.003,-298.409 -216,-298.409   " fill="none"/>
  <path id="svg_28" stroke-width="20.1478" stroke-miterlimit="10" stroke-linejoin="round" stroke-linecap="round" stroke="#000000" fill="none" d="m-282.586,-455.276c11.659,0 21.176,-13.689 21.176,-30.465c0,-16.804 -9.517,-30.493 -21.176,-30.493c-11.66,0 -21.176,13.689 -21.176,30.493c0,16.776 9.516,30.465 21.176,30.465l0,0z"/>
  <path id="svg_30" stroke-width="20.1764" stroke-miterlimit="10" stroke-linejoin="round" stroke-linecap="round" stroke="#000000" fill="none" d="m305.082,-388.708c76.22,21.157 132.188,91.05 132.188,174.055c0,99.76 -80.86,180.653 -180.62,180.653c-99.789,0 -180.65,-80.893 -180.65,-180.653c0,-83.939 57.233,-154.494 134.81,-174.778l0,-77.608l94.272,0l0,78.331z"/>
  <path id="svg_31" stroke-width="20.1764" stroke-miterlimit="10" stroke-linejoin="round" stroke-linecap="round" stroke="#000000" fill="none" d="m202.973,-516.77l109.945,0c10.098,0 18.325,8.228 18.325,18.324l0,13.081c0,10.096 -8.228,18.324 -18.325,18.324l-109.945,0c-10.097,0 -18.323,-8.229 -18.323,-18.324l0,-13.081c-0.001,-10.096 8.226,-18.324 18.323,-18.324l0,0z"/>
  <line id="svg_32" y2="-214.653" y1="-214.653" x2="119.852" x1="77.085" stroke-width="20.1764" stroke-miterlimit="10" stroke-linejoin="round" stroke-linecap="round" stroke="#000000" fill="none"/>
  <line id="svg_33" y2="-214.653" y1="-214.653" x2="192.968" x1="155.023" stroke-width="20.1764" stroke-miterlimit="10" stroke-linejoin="round" stroke-linecap="round" stroke="#000000" fill="none"/>
  <line id="svg_34" y2="-214.653" y1="-214.653" x2="437.27" x1="400.411" stroke-width="20.1764" stroke-miterlimit="10" stroke-linejoin="round" stroke-linecap="round" stroke="#000000" fill="none"/>
  <line id="svg_35" y2="-214.653" y1="-214.653" x2="278.017" x1="240.104" stroke-width="20.1764" stroke-miterlimit="10" stroke-linejoin="round" stroke-linecap="round" stroke="#000000" fill="none"/>
  <line id="svg_36" y2="-214.653" y1="-214.653" x2="363.068" x1="325.153" stroke-width="20.1764" stroke-miterlimit="10" stroke-linejoin="round" stroke-linecap="round" stroke="#000000" fill="none"/>
  <path id="svg_38" stroke-width="20.1764" stroke-miterlimit="10" stroke-linejoin="round" stroke-linecap="round" stroke="#000000" fill="none" d="m787.903,-450.299c91.603,-163.988 299.592,18.78 171.549,160.75c-86.922,100.73 -24.991,176.822 -86.245,255.122c-14.601,-77.123 -25.786,-137.143 -85.304,-140.027c-59.518,2.885 -70.732,62.905 -85.332,140.027c-61.226,-78.3 0.677,-154.392 -86.216,-255.122c-128.043,-141.971 79.917,-324.738 171.548,-160.75l0,0z"/>
  <path id="svg_39" stroke-width="20.1764" stroke-miterlimit="10" stroke-linejoin="round" stroke-linecap="round" stroke="#000000" fill="none" d="m759.587,-395.99c3.503,-23.667 28.316,-54.309 28.316,-54.309s24.726,26.228 31.407,55.222"/>
  <path id="svg_40" stroke-width="20.1764" stroke-miterlimit="10" stroke-linejoin="round" stroke-linecap="round" stroke="#000000" fill="none" d="m619.446,-383.421c0,0 -12.569,-72.736 51.217,-73.649"/>
  <path id="svg_42" stroke-width="20.1764" stroke-miterlimit="10" stroke-linejoin="round" stroke-linecap="round" stroke="#000000" fill="none" d="m749.001,118.922l169.687,124.174c24.484,17.938 29.867,52.657 11.929,77.169l0,0c-17.938,24.484 -52.654,29.869 -77.138,11.93l-169.687,-124.174l65.209,-89.099z"/>
  <path id="svg_43" stroke-width="20.1764" stroke-miterlimit="10" stroke-linejoin="round" stroke-linecap="round" stroke="#000000" fill="none" d="m647.916,204.333l7.495,-10.233l-82.374,-60.273c-60.776,-44.504 9.104,-150.383 74.848,-102.278l82.375,60.271l4.372,-5.979c3.242,-4.433 9.521,-5.414 13.952,-2.172l9.014,6.604c4.433,3.242 5.386,9.52 2.143,13.953l-86.717,118.492c-3.243,4.433 -9.52,5.415 -13.953,2.172l-8.983,-6.604c-4.434,-3.243 -5.416,-9.52 -2.172,-13.953l0,0z"/>
  <line id="svg_44" y2="322.766" y1="342.846" x2="936.061" x1="963.46" stroke-width="20.1764" stroke-miterlimit="10" stroke-linejoin="round" stroke-linecap="round" stroke="#000000" fill="none"/>
  <line id="svg_45" y2="142.841" y1="165.123" x2="781.695" x1="765.393" stroke-width="20.1764" stroke-miterlimit="10" stroke-linejoin="round" stroke-linecap="round" stroke="#000000" fill="none"/>
  <line id="svg_46" y2="164.587" y1="204.868" x2="811.414" x1="781.934" stroke-width="20.1764" stroke-miterlimit="10" stroke-linejoin="round" stroke-linecap="round" stroke="#000000" fill="none"/>
  <line id="svg_47" y2="186.334" y1="208.617" x2="841.104" x1="824.801" stroke-width="20.1764" stroke-miterlimit="10" stroke-linejoin="round" stroke-linecap="round" stroke="#000000" fill="none"/>
  <line id="svg_48" y2="208.052" y1="248.362" x2="870.821" x1="841.311" stroke-width="20.1764" stroke-miterlimit="10" stroke-linejoin="round" stroke-linecap="round" stroke="#000000" fill="none"/>
  <line id="svg_49" y2="229.798" y1="252.081" x2="900.512" x1="884.21" stroke-width="20.1764" stroke-miterlimit="10" stroke-linejoin="round" stroke-linecap="round" stroke="#000000" fill="none"/>
  <path id="svg_50" stroke-width="20.1764" stroke-miterlimit="10" stroke-linejoin="round" stroke-linecap="round" stroke="#000000" fill="none" d="m983.837,494.956c62.949,1.428 11.899,-98.708 2.023,-120.01c-11.631,23.294 -64.109,118.611 -2.023,120.01l0,0z"/>
  <path id="svg_52" stroke-width="20.1478" stroke-miterlimit="10" stroke-linejoin="round" stroke-linecap="round" stroke="#000000" fill="none" d="m220.979,213.55c0.497,3.414 0.76,6.945 0.76,10.535c0,30.087 -17.51,54.484 -39.075,54.484c-21.564,0 -39.045,-24.396 -39.045,-54.484c0,-4.348 0.351,-8.609 1.051,-12.665c11.731,7.062 25.446,11.119 40.066,11.119l0,0c13.044,-0.001 25.387,-3.24 36.243,-8.989l0,0z"/>
  <path id="svg_53" stroke-width="20.1478" stroke-miterlimit="10" stroke-linejoin="round" stroke-linecap="round" stroke="#000000" fill="none" d="m373.834,303.228c19.814,0 35.98,-16.167 35.98,-35.982c0,-19.815 -16.166,-35.982 -35.98,-35.982s-35.953,16.167 -35.953,35.982c0,19.815 16.139,35.982 35.953,35.982l0,0z"/>
  <path id="svg_54" stroke-width="20.1478" stroke-miterlimit="10" stroke-linejoin="round" stroke-linecap="round" stroke="#000000" fill="none" d="m262.826,59.145l0,85.271c0,42.986 -35.135,78.122 -78.091,78.122l0,0c-42.984,0 -78.12,-35.136 -78.12,-78.122l0,-85.271"/>
  <path id="svg_55" stroke-width="20.1478" stroke-miterlimit="10" stroke-linejoin="round" stroke-linecap="round" stroke="#000000" fill="none" d="m106.615,59.145c12.461,0 22.617,-10.156 22.617,-22.617s-10.156,-22.616 -22.617,-22.616c-12.46,0 -22.615,10.155 -22.615,22.616s10.155,22.617 22.615,22.617l0,0z"/>
  <path id="svg_56" stroke-width="20.1478" stroke-miterlimit="10" stroke-linejoin="round" stroke-linecap="round" stroke="#000000" fill="none" d="m262.826,60.663c12.461,0 22.615,-10.156 22.615,-22.617s-10.154,-22.616 -22.615,-22.616c-12.432,0 -22.587,10.155 -22.587,22.616s10.156,22.617 22.587,22.617l0,0z"/>
  <path id="svg_57" stroke-width="20.1478" stroke-miterlimit="10" stroke-linejoin="round" stroke-linecap="round" stroke="#000000" fill="none" d="m373.834,306.846l0,93.531c0,53.141 -43.481,96.623 -96.593,96.623l0,0c-53.139,0 -96.62,-43.482 -96.62,-96.623l0,-122.334"/>
  <line id="svg_58" y2="267.012" y1="267.246" x2="373.834" x1="373.834" stroke-width="20.1478" stroke-miterlimit="10" stroke-linejoin="round" stroke-linecap="round" stroke="#000000" fill="none"/>
  <path id="svg_60" stroke-width="20.1478" stroke-miterlimit="10" stroke-linejoin="round" stroke-linecap="round" stroke="#000000" fill="none" d="m-400.56,42.27l58.679,0l0,0c0,16.646 13.623,30.268 30.269,30.268l73.049,0c16.676,0 30.299,-13.623 30.299,-30.268l0,0l58.648,0c29.401,0 53.441,24.041 53.441,53.441l0,350.889c0,29.4 -24.04,53.441 -53.441,53.441l-250.944,0c-29.399,0.001 -53.44,-24.041 -53.44,-53.441l0,-350.889c0,-29.401 24.041,-53.441 53.44,-53.441l0,0z"/>
  <path id="svg_61" stroke-width="20.1478" stroke-miterlimit="10" stroke-linejoin="round" stroke-linecap="round" stroke="#000000" fill="none" d="m-311.612,12l73.049,0c16.676,0 30.299,13.623 30.299,30.27l0,0c0,16.646 -13.623,30.268 -30.299,30.268l-73.049,0c-16.646,0 -30.269,-13.623 -30.269,-30.268l0,0c0,-16.647 13.623,-30.27 30.269,-30.27l0,0z"/>
  <polygon id="svg_62" stroke-width="20.1478" stroke-miterlimit="10" stroke-linejoin="round" stroke-linecap="round" stroke="#000000" points="    -298.977,135.829 -251.196,135.829 -251.196,167.715 -219.311,167.715 -219.311,215.498 -251.196,215.498 -251.196,247.384     -298.977,247.384 -298.977,215.498 -330.862,215.498 -330.862,167.715 -298.977,167.715   " fill="none"/>
  <line id="svg_63" y2="314.777" y1="314.777" x2="-207.695" x1="-391.278" stroke-width="20.1478" stroke-miterlimit="10" stroke-linejoin="round" stroke-linecap="round" stroke="#000000" fill="none"/>
  <line id="svg_64" y2="373.009" y1="373.009" x2="-251.854" x1="-391.278" stroke-width="20.1478" stroke-miterlimit="10" stroke-linejoin="round" stroke-linecap="round" stroke="#000000" fill="none"/>
  <line id="svg_65" y2="431.271" y1="431.271" x2="-251.854" x1="-391.278" stroke-width="20.1478" stroke-miterlimit="10" stroke-linejoin="round" stroke-linecap="round" stroke="#000000" fill="none"/>
  <path id="svg_67" stroke-width="20.1478" stroke-miterlimit="10" stroke-linejoin="round" stroke-linecap="round" stroke="#000000" fill="none" d="m-967.967,433.106l318.685,0c17.613,0 32.032,14.419 32.032,32.033l0,0c0,17.614 -14.419,32.034 -32.032,32.034l-318.685,0c-17.614,0 -32.033,-14.419 -32.033,-32.034l0,0c0,-17.614 14.419,-32.033 32.033,-32.033l0,0z"/>
  <path id="svg_68" stroke-width="20.1478" stroke-miterlimit="10" stroke-linejoin="round" stroke-linecap="round" stroke="#000000" fill="none" d="m-682.077,259.809c19.724,0 35.842,-16.09 35.842,-35.844s-16.119,-35.873 -35.842,-35.873c-19.753,0 -35.872,16.12 -35.872,35.873s16.118,35.844 35.872,35.844l0,0z"/>
  <rect id="svg_69" y="27.259" x="-839.487" width="59.409" transform="matrix(0.7311,0.6823,-0.6823,0.7311,-142.4028,582.1925) " stroke-width="20.1478" stroke-miterlimit="10" stroke-linejoin="round" stroke-linecap="round" stroke="#000000" height="166.363" fill="none"/>
  <path id="svg_70" stroke-width="20.1478" stroke-miterlimit="10" stroke-linejoin="round" stroke-linecap="round" stroke="#000000" fill="none" d="m-915.537,125.52l95.541,89.154l-63.684,68.258l-2.052,-1.905l0,0c9.759,-10.462 -2.784,-38.071 -28.047,-61.634c-25.234,-23.563 -53.632,-34.173 -63.391,-23.71l0,0l-2.052,-1.905l63.685,-68.258z"/>
  <path id="svg_71" stroke-width="20.1478" stroke-miterlimit="10" stroke-linejoin="round" stroke-linecap="round" stroke="#000000" fill="none" d="m-913.779,219.393c25.263,23.563 37.806,51.172 28.047,61.634c-9.759,10.463 -38.158,-0.175 -63.391,-23.739c-25.263,-23.563 -37.806,-51.143 -28.047,-61.605c9.759,-10.463 38.157,0.147 63.391,23.71l0,0z"/>
  <path id="svg_72" stroke-width="20.1478" stroke-miterlimit="10" stroke-linejoin="round" stroke-linecap="round" stroke="#000000" fill="none" d="m-653.854,246.063l0,187.043l-56.475,0l0,-187.043c6.565,8.381 16.793,13.746 28.252,13.746s21.658,-5.364 28.223,-13.746l0,0z"/>
  <path id="svg_73" stroke-width="20.1478" stroke-miterlimit="10" stroke-linejoin="round" stroke-linecap="round" stroke="#000000" fill="none" d="m-759.771,100.403l90.383,90.004c-3.957,-1.495 -8.235,-2.315 -12.69,-2.315c-19.079,0 -34.67,14.918 -35.813,33.704l-80.418,-80.098l38.538,-41.295z"/>
  <line id="svg_74" y2="430.703" y1="368.336" x2="-915.068" x1="-915.068" stroke-width="20.1478" stroke-miterlimit="10" stroke-linejoin="round" stroke-linecap="round" stroke="#000000" fill="none"/>
  <line id="svg_75" y2="366.255" y1="366.255" x2="-883.886" x1="-946.251" stroke-width="20.1478" stroke-miterlimit="10" stroke-linejoin="round" stroke-linecap="round" stroke="#000000" fill="none"/>
  <line id="svg_76" y2="36.366" y1="15" x2="-719.532" x1="-742.244" stroke-width="20.1478" stroke-miterlimit="10" stroke-linejoin="round" stroke-linecap="round" stroke="#000000" fill="none"/>
  <path id="svg_78" stroke-width="20.1764" stroke-miterlimit="10" stroke-linejoin="round" stroke-linecap="round" stroke="#000000" fill="none" d="m-1345.978,14.657l0,0c33.446,0 60.803,27.357 60.803,60.774l0,243.186c0,27.388 -18.388,50.725 -43.405,58.255l0,106.76c0,9.539 -7.829,17.368 -17.398,17.368l0,0c-9.539,0 -17.368,-7.829 -17.368,-17.368l0,-106.76c-25.017,-7.53 -43.404,-30.867 -43.404,-58.255l0,-243.186c0,-33.416 27.357,-60.774 60.772,-60.774l0,0z"/>
  <line id="svg_79" y2="355.754" y1="87.49" x2="-1345.978" x1="-1345.978" stroke-width="20.1764" stroke-miterlimit="10" stroke-linejoin="round" stroke-linecap="round" stroke="#000000" fill="none"/>
  <line id="svg_80" y2="161.763" y1="161.763" x2="-1324.59" x1="-1367.335" stroke-width="20.1764" stroke-miterlimit="10" stroke-linejoin="round" stroke-linecap="round" stroke="#000000" fill="none"/>
  <line id="svg_81" y2="207.389" y1="207.389" x2="-1316.401" x1="-1375.524" stroke-width="20.1764" stroke-miterlimit="10" stroke-linejoin="round" stroke-linecap="round" stroke="#000000" fill="none"/>
  <line id="svg_82" y2="254.574" y1="254.574" x2="-1324.59" x1="-1367.335" stroke-width="20.1764" stroke-miterlimit="10" stroke-linejoin="round" stroke-linecap="round" stroke="#000000" fill="none"/>
  <path id="svg_83" stroke-width="20.1764" stroke-miterlimit="10" stroke-linejoin="round" stroke-linecap="round" stroke="#000000" fill="none" d="m-1345.917,87.49c8.909,0 16.168,-7.259 16.168,-16.168s-7.259,-16.168 -16.168,-16.168c-8.909,0 -16.198,7.259 -16.198,16.168s7.289,16.168 16.198,16.168l0,0z"/>
  <path id="svg_85" stroke-width="20.1764" stroke-miterlimit="10" stroke-linejoin="round" stroke-linecap="round" stroke="#000000" fill="none" d="m-1236.3,771.58c3.583,14.214 5.511,29.393 5.511,45.173c0,80.438 -50.17,145.607 -112.056,145.607c-61.916,0 -112.086,-65.169 -112.086,-145.607c0,-15.781 1.927,-30.959 5.511,-45.173l213.12,0l0,0z"/>
  <path id="svg_86" stroke-width="20.1764" stroke-miterlimit="10" stroke-linejoin="round" stroke-linecap="round" stroke="#000000" fill="none" d="m-1449.42,771.58l213.12,0l63.752,-123.352c-113.291,-105.192 -206.134,-119.557 -333.578,-3.523l56.706,126.875z"/>
  <path id="svg_87" stroke-width="20.1764" stroke-miterlimit="10" stroke-linejoin="round" stroke-linecap="round" stroke="#000000" fill="none" d="m-1428.1,911.285l-153.884,0c-11.052,-84.112 23.609,-147.896 97.269,-194.334"/>
  <line id="svg_88" y2="701.141" y1="628.773" x2="-1349.019" x1="-1349.019" stroke-width="20.1764" stroke-miterlimit="10" stroke-linejoin="round" stroke-linecap="round" stroke="#000000" fill="none"/>
  <line id="svg_89" y2="664.972" y1="664.972" x2="-1312.851" x1="-1385.216" stroke-width="20.1764" stroke-miterlimit="10" stroke-linejoin="round" stroke-linecap="round" stroke="#000000" fill="none"/>
  <path id="svg_90" stroke-width="20.1764" stroke-miterlimit="10" stroke-linejoin="round" stroke-linecap="round" stroke="#000000" fill="none" d="m-1254.641,911.315l158.523,-0.03c11.083,-84.112 -23.61,-147.896 -97.27,-194.334"/>
  <path id="svg_91" stroke-width="20.1764" stroke-miterlimit="10" stroke-linejoin="round" stroke-linecap="round" stroke="#000000" fill="none" d="m-1454.841,822.746c50.683,-0.06 85.254,-20.629 111.996,-51.166c32.042,31.079 68.992,49.51 111.935,52.31"/>
  <path id="svg_92" stroke-width="20.1764" stroke-miterlimit="10" stroke-linejoin="round" stroke-linecap="round" stroke="#000000" fill="none" d="m-1519.135,911.285c-14.094,-69.145 9.998,-126.544 52.49,-178.252"/>
  <path id="svg_93" stroke-width="20.1764" stroke-miterlimit="10" stroke-linejoin="round" stroke-linecap="round" stroke="#000000" fill="none" d="m-1162.581,911.285c14.093,-69.145 -9.999,-126.544 -52.489,-178.252"/>
  <path id="svg_95" stroke-width="20.1478" stroke-miterlimit="10" stroke-linejoin="round" stroke-linecap="round" stroke="#000000" fill="none" d="m-898.455,1016.338c73.364,0 133.199,-59.836 133.199,-133.203c0,-73.366 -59.835,-133.203 -133.199,-133.203s-133.199,59.836 -133.199,133.203c0,73.366 59.835,133.203 133.199,133.203l0,0z"/>
  <path id="svg_96" stroke-width="20.1478" stroke-miterlimit="10" stroke-linejoin="round" stroke-linecap="round" stroke="#000000" fill="none" d="m-665.678,880.54l83.541,0c8.69,0 15.775,7.114 15.775,15.775l0,11.14c0,8.66 -7.085,15.775 -15.775,15.775c-63.421,0 -126.317,1.283 -189.68,1.283c4.257,-13.034 6.561,-26.944 6.561,-41.378c0,-73.571 -59.63,-133.203 -133.199,-133.203c-14.463,0 -28.372,2.304 -41.377,6.561l0,-159.942c0,-17.35 14.171,-31.551 31.521,-31.551l22.278,0c17.35,0 31.55,14.201 31.55,31.551l0,115.881l144.834,0c24.172,0 43.971,19.771 43.971,43.974l0,124.134l0,0z"/>
  <path id="svg_97" stroke-width="20.1478" stroke-miterlimit="10" stroke-linejoin="round" stroke-linecap="round" stroke="#000000" fill="none" d="m-619.169,1005.082c11.577,0 20.995,-9.448 20.995,-21.024c0,-11.577 -9.418,-20.995 -20.995,-20.995c-11.575,0 -21.023,9.418 -21.023,20.995c-0.001,11.576 9.447,21.024 21.023,21.024l0,0z"/>
  <polyline id="svg_98" stroke-width="20.1478" stroke-miterlimit="10" stroke-linejoin="round" stroke-linecap="round" stroke="#000000" points="    -808.557,784.837 -694.253,784.837 -665.678,784.837   " fill="none"/>
  <line id="svg_99" y2="1016.338" y1="749.932" x2="-895.89" x1="-895.89" stroke-width="20.1478" stroke-miterlimit="10" stroke-linejoin="round" stroke-linecap="round" stroke="#000000" fill="none"/>
  <line id="svg_100" y2="883.135" y1="883.135" x2="-765.256" x1="-1029.088" stroke-width="20.1478" stroke-miterlimit="10" stroke-linejoin="round" stroke-linecap="round" stroke="#000000" fill="none"/>
  <line id="svg_101" y2="978.109" y1="788.161" x2="-989.257" x1="-802.493" stroke-width="20.1478" stroke-miterlimit="10" stroke-linejoin="round" stroke-linecap="round" stroke="#000000" fill="none"/>
  <line id="svg_102" y2="973.735" y1="788.161" x2="-806.778" x1="-989.257" stroke-width="20.1478" stroke-miterlimit="10" stroke-linejoin="round" stroke-linecap="round" stroke="#000000" fill="none"/>
  <polyline id="svg_103" stroke-width="20.1478" stroke-miterlimit="10" stroke-linejoin="round" stroke-linecap="round" stroke="#000000" points="    -722.83,880.54 -608.525,880.54 -579.95,880.54   " fill="none"/>
  <path id="svg_104" stroke-width="20.1478" stroke-miterlimit="10" stroke-linejoin="round" stroke-linecap="round" stroke="#000000" fill="none" d="m-1029.205,610.869l89.373,0l0,41.086l-89.373,0c-11.284,0 -20.528,-9.244 -20.528,-20.528l0,0c0,-11.315 9.244,-20.558 20.528,-20.558l0,0z"/>
 </g>
</svg>